<?xml version="1.0" encoding="UTF-8"?>
<svg width="30px" height="30px" viewBox="0 0 30 30" version="1.1" xmlns="http://www.w3.org/2000/svg" xmlns:xlink="http://www.w3.org/1999/xlink">
    <title>编组</title>
    <g id="1" stroke="none" stroke-width="1" fill="none" fill-rule="evenodd">
        <g id="切图" transform="translate(-172.000000, -119.000000)">
            <g id="编组-3备份" transform="translate(142.000000, 104.000000)">
                <g id="编组" transform="translate(30.000000, 15.000000)">
                    <rect id="矩形" x="0" y="0" width="30" height="30"></rect>
                    <path d="M17.7730025,4.12707174 L25.220371,9.63416023 C26.2403598,10.3884091 26.8421053,11.5817767 26.8421053,12.8503462 L26.8421053,22.8421053 C26.8421053,25.0512443 25.0512443,26.8421053 22.8421053,26.8421053 L19.7190874,26.8426989 C19.7308386,26.7124948 19.7368421,26.5806327 19.7368421,26.4473684 L19.7368421,26.4473684 L19.7368421,19.3421053 C19.7368421,16.9440267 17.7928154,15 15.3947368,15 C12.9966583,15 11.0526316,16.9440267 11.0526316,19.3421053 L11.0526316,19.3421053 L11.0526316,26.4473684 C11.0526316,26.5806327 11.0586351,26.7124948 11.0703863,26.8426989 L7.94736842,26.8421053 C5.73822942,26.8421053 3.94736842,25.0512443 3.94736842,22.8421053 L3.94736842,12.8503462 C3.94736842,11.5817767 4.54911385,10.3884091 5.56910273,9.63416023 L13.0164711,4.12707174 C14.4297652,3.08198639 16.3597084,3.08198639 17.7730025,4.12707174 Z" id="形状结合" fill="#444649"></path>
                </g>
            </g>
        </g>
    </g>
</svg>