<?xml version="1.0" encoding="UTF-8"?>
<svg width="30px" height="30px" viewBox="0 0 30 30" version="1.1" xmlns="http://www.w3.org/2000/svg" xmlns:xlink="http://www.w3.org/1999/xlink">
    <title>编组备份 3</title>
    <g id="1" stroke="none" stroke-width="1" fill="none" fill-rule="evenodd">
        <g id="切图" transform="translate(-376.000000, -203.000000)">
            <g id="编组-3备份-3" transform="translate(142.000000, 188.000000)">
                <g id="编组备份-3" transform="translate(234.000000, 15.000000)">
                    <rect id="矩形" x="0" y="0" width="30" height="30"></rect>
                    <g id="编组-2" transform="translate(4.736842, 5.526316)" fill="#DBDBDC">
                        <path d="M17.3157895,0 C19.5249285,-4.05812251e-16 21.3157895,1.790861 21.3157895,4 L21.3157895,14.9473684 C21.3157895,17.1565074 19.5249285,18.9473684 17.3157895,18.9473684 L4,18.9473684 C1.790861,18.9473684 2.705415e-16,17.1565074 0,14.9473684 L0,4 C-2.705415e-16,1.790861 1.790861,4.05812251e-16 4,0 L17.3157895,0 Z M16.9547697,11.4620169 L4.5424904,11.4620169 C4.40117166,11.4620169 4.26645263,11.521819 4.17165965,11.6266297 C3.98643043,11.8314339 4.00229906,12.1476184 4.20710323,12.3328476 L4.20710323,12.3328476 L8.01091988,15.7730997 C8.10284222,15.8562362 8.22236596,15.902269 8.34630705,15.902269 C8.62244943,15.902269 8.84630705,15.6784114 8.84630705,15.402269 L8.84630705,15.402269 L8.84630705,14.2257787 C8.84630705,13.9496363 9.07016468,13.7257787 9.34630705,13.7257787 L9.34630705,13.7257787 L16.9547697,13.7257787 C17.2309121,13.7257787 17.4547697,13.5019211 17.4547697,13.2257787 L17.4547697,13.2257787 L17.4547697,11.9620169 C17.4547697,11.6858745 17.2309121,11.4620169 16.9547697,11.4620169 L16.9547697,11.4620169 Z M13.0558311,4.13929916 C12.7796887,4.13929916 12.5558311,4.36315678 12.5558311,4.63929916 L12.5558311,4.63929916 L12.5558311,5.81578947 C12.5558311,6.09193185 12.3319735,6.31578947 12.0558311,6.31578947 L12.0558311,6.31578947 L4.44736842,6.31578947 C4.17122605,6.31578947 3.94736842,6.5396471 3.94736842,6.81578947 L3.94736842,6.81578947 L3.94736842,8.0795513 C3.94736842,8.35569367 4.17122605,8.5795513 4.44736842,8.5795513 L4.44736842,8.5795513 L16.8596478,8.5795513 C17.0009665,8.5795513 17.1356855,8.51974913 17.2304785,8.41493846 C17.4157077,8.21013429 17.3998391,7.89394976 17.1950349,7.70872054 L17.1950349,7.70872054 L13.3912183,4.26846841 C13.2992959,4.1853319 13.1797722,4.13929916 13.0558311,4.13929916 Z" id="形状结合"></path>
                    </g>
                </g>
            </g>
        </g>
    </g>
</svg>