<?xml version="1.0" encoding="UTF-8"?>
<svg width="30px" height="30px" viewBox="0 0 30 30" version="1.1" xmlns="http://www.w3.org/2000/svg" xmlns:xlink="http://www.w3.org/1999/xlink">
    <title>编组备份 4</title>
    <g id="1" stroke="none" stroke-width="1" fill="none" fill-rule="evenodd">
        <g id="切图" transform="translate(-444.000000, -119.000000)">
            <g id="编组-3备份" transform="translate(142.000000, 104.000000)">
                <g id="编组备份-4" transform="translate(302.000000, 15.000000)">
                    <rect id="矩形" x="0" y="0" width="30" height="30"></rect>
                    <path d="M16.5,4.81339382 L23.0718597,8.60765881 C24.000063,9.14355719 24.5718597,10.1339382 24.5718597,11.205735 L24.5718597,18.794265 C24.5718597,19.8660618 24.000063,20.8564428 23.0718597,21.3923412 L16.5,25.1866062 C15.5717968,25.7225046 14.4282032,25.7225046 13.5,25.1866062 L6.92814027,21.3923412 C5.99993704,20.8564428 5.42814027,19.8660618 5.42814027,18.794265 L5.42814027,11.205735 C5.42814027,10.1339382 5.99993704,9.14355719 6.92814027,8.60765881 L13.5,4.81339382 C14.4282032,4.27749544 15.5717968,4.27749544 16.5,4.81339382 Z M15,11.8421053 C13.2559429,11.8421053 11.8421053,13.2559429 11.8421053,15 C11.8421053,16.7440571 13.2559429,18.1578947 15,18.1578947 C16.7440571,18.1578947 18.1578947,16.7440571 18.1578947,15 C18.1578947,13.2559429 16.7440571,11.8421053 15,11.8421053 Z" id="形状结合" fill="#444649"></path>
                </g>
            </g>
        </g>
    </g>
</svg>