<?xml version="1.0" encoding="UTF-8"?>
<svg width="40px" height="41px" viewBox="0 0 40 41" version="1.1" xmlns="http://www.w3.org/2000/svg" xmlns:xlink="http://www.w3.org/1999/xlink">
    <title>编组 5</title>
    <g id="1" stroke="none" stroke-width="1" fill="none" fill-rule="evenodd">
        <g id="Activity" transform="translate(-30.000000, -224.000000)">
            <g id="编组-3备份" transform="translate(18.000000, 210.000000)">
                <g id="编组-5" transform="translate(12.000000, 14.000000)">
                    <ellipse id="椭圆形" fill="#08CE9E" cx="20" cy="20.5" rx="20" ry="20.5"></ellipse>
                    <path d="M18.2370098,11.01801 L21.78878,11.0037277 C22.3117171,11.0016248 22.7479685,11.4027845 22.7896236,11.9240641 L23.5311269,21.2033621 C23.5726589,21.7231007 24.006554,22.1237066 24.5279494,22.1237066 L25.8023356,22.1237066 C26.344325,22.1237066 26.7836943,22.5630759 26.7836943,23.1050654 C26.7836943,23.3468339 26.6944482,23.5800938 26.5330689,23.760118 L20.783629,30.1738129 C20.4149814,30.5850518 19.7827585,30.6195789 19.3715196,30.2509313 C19.345758,30.2278377 19.3212121,30.2034228 19.2979811,30.177785 L13.4868678,23.7646193 C13.1228056,23.3628389 13.1533822,22.7420009 13.5551625,22.3779387 C13.7357284,22.2143239 13.9706881,22.1237066 14.2143555,22.1237066 L15.5055765,22.1237066 C16.0269121,22.1237066 16.4607786,21.7231895 16.5023865,21.2035169 L17.2442209,11.9381917 C17.2857055,11.4200588 17.717223,11.0201002 18.2370098,11.01801 Z" id="矩形" fill="#FFFFFF"></path>
                </g>
            </g>
        </g>
    </g>
</svg>