<?xml version="1.0" encoding="UTF-8"?>
<svg width="30px" height="30px" viewBox="0 0 30 30" version="1.1" xmlns="http://www.w3.org/2000/svg" xmlns:xlink="http://www.w3.org/1999/xlink">
    <title>编组备份</title>
    <g id="1" stroke="none" stroke-width="1" fill="none" fill-rule="evenodd">
        <g id="切图" transform="translate(-240.000000, -203.000000)">
            <g id="编组-3备份-3" transform="translate(142.000000, 188.000000)">
                <g id="编组备份" transform="translate(98.000000, 15.000000)">
                    <rect id="矩形" x="0" y="0" width="30" height="30"></rect>
                    <path d="M11.7447006,5.52631579 C12.4617945,5.52631579 13.1240082,5.91022966 13.480326,6.53253284 L14.4238611,8.18040115 C14.7801789,8.80270433 15.4423925,9.1866182 16.1594865,9.1866182 L24.8421053,9.1866182 C25.9466748,9.1866182 26.8421053,10.0820487 26.8421053,11.1866182 L26.8421053,23.2631579 C26.8421053,24.3677274 25.9466748,25.2631579 24.8421053,25.2631579 L5.15789474,25.2631579 C4.05332524,25.2631579 3.15789474,24.3677274 3.15789474,23.2631579 L3.15789474,7.52631579 C3.15789474,6.42174629 4.05332524,5.52631579 5.15789474,5.52631579 L11.7447006,5.52631579 Z M14.6113077,13.0762519 C14.1628128,12.8549065 13.6198,13.0390475 13.3984546,13.4875423 L13.3984546,13.4875423 L12.8190534,14.6615373 C12.6733914,14.9566808 12.3918258,15.1612501 12.0661157,15.2085786 L12.0661157,15.2085786 L10.7705353,15.3968375 C10.5734462,15.4254762 10.3912944,15.5182871 10.2522792,15.6609021 C9.90317462,16.0190466 9.9105029,16.5923851 10.2686473,16.9414897 L10.2686473,16.9414897 L11.2061381,17.8553173 C11.4418242,18.0850545 11.5493727,18.4160547 11.4937347,18.7404488 L11.4937347,18.7404488 L11.2724232,20.0307941 C11.2387564,20.2270868 11.2707368,20.4290036 11.3634137,20.6052854 C11.59615,21.0479763 12.143692,21.2181781 12.5863829,20.9854417 L12.5863829,20.9854417 L13.7451852,20.3762233 C14.0365092,20.2230652 14.3845434,20.2230652 14.6758674,20.3762233 L14.6758674,20.3762233 L15.8346698,20.9854417 C16.0109516,21.0781185 16.2128684,21.110099 16.4091611,21.0764322 C16.9021046,20.9918857 17.2331759,20.5237376 17.1486294,20.0307941 L17.1486294,20.0307941 L16.9273179,18.7404488 C16.8716799,18.4160547 16.9792284,18.0850545 17.2149145,17.8553173 L17.2149145,17.8553173 L18.1524053,16.9414897 C18.2950203,16.8024744 18.3878313,16.6203226 18.41647,16.4232336 C18.4883895,15.9282901 18.1454608,15.4687569 17.6505174,15.3968375 L17.6505174,15.3968375 L16.354937,15.2085786 C16.0292268,15.1612501 15.7476612,14.9566808 15.6019992,14.6615373 L15.6019992,14.6615373 L15.022598,13.4875423 C14.9344571,13.3089493 14.7899007,13.1643929 14.6113077,13.0762519 Z" id="形状结合" fill="#DBDBDC"></path>
                </g>
            </g>
        </g>
    </g>
</svg>