<?xml version="1.0" encoding="UTF-8"?>
<svg width="21px" height="21px" viewBox="0 0 21 21" version="1.1" xmlns="http://www.w3.org/2000/svg" xmlns:xlink="http://www.w3.org/1999/xlink">
    <title>编组 6备份</title>
    <g id="1" stroke="none" stroke-width="1" fill="none" fill-rule="evenodd">
        <g id="登陆注册-1备份" transform="translate(-305.000000, -490.000000)">
            <g id="编组-3" transform="translate(18.000000, 440.000000)">
                <g id="编组-6备份" transform="translate(287.000000, 50.000000)">
                    <rect id="矩形" x="0" y="0" width="21" height="21"></rect>
                    <g id="编组" transform="translate(2.000000, 6.000000)" stroke="#D3D7D9" stroke-linejoin="round" stroke-width="1.25">
                        <path d="M9,11 C13.970565,11 18,5.5 18,5.5 C18,5.5 13.970565,0 9,0 C4.029435,0 0,5.5 0,5.5 C0,5.5 4.029435,11 9,11 Z" id="路径"></path>
                        <path d="M9,7.79166667 C10.24263,7.79166667 11.25,6.76564167 11.25,5.5 C11.25,4.23435833 10.24263,3.20833333 9,3.20833333 C7.75737,3.20833333 6.75,4.23435833 6.75,5.5 C6.75,6.76564167 7.75737,7.79166667 9,7.79166667 Z" id="路径"></path>
                    </g>
                </g>
            </g>
        </g>
    </g>
</svg>